<svg xmlns="http://www.w3.org/2000/svg" width="21.956" height="29.276" viewBox="0 0 21.956 29.276">
  <path id="award-solid_1_" data-name="award-solid (1)" d="M5.551,20.727c-.5-.5-.238-.357-1.436-.678a4.125,4.125,0,0,1-1.454-.762L.067,25.648a.915.915,0,0,0,.882,1.26l3.013-.115,2.072,2.189A.915.915,0,0,0,7.545,28.7l2.976-7.3a4.1,4.1,0,0,1-4.97-.674Zm16.335,4.921-2.594-6.36a4.116,4.116,0,0,1-1.454.762c-1.2.322-.941.182-1.436.678a4.1,4.1,0,0,1-4.97.674l2.976,7.3a.915.915,0,0,0,1.511.284l2.073-2.189L21,26.908A.915.915,0,0,0,21.886,25.648Zm-6.85-6.215c.874-.889.974-.812,2.218-1.152a2.324,2.324,0,0,0,1.628-1.657,3.675,3.675,0,0,1,1.484-2.616,2.372,2.372,0,0,0,.6-2.263,3.718,3.718,0,0,1,0-3.021,2.372,2.372,0,0,0-.6-2.263,3.676,3.676,0,0,1-1.484-2.616,2.324,2.324,0,0,0-1.628-1.657,3.584,3.584,0,0,1-2.57-1.51A2.275,2.275,0,0,0,12.46.072a3.538,3.538,0,0,1-2.968,0A2.274,2.274,0,0,0,7.269.678,3.582,3.582,0,0,1,4.7,2.189,2.324,2.324,0,0,0,3.071,3.846,3.674,3.674,0,0,1,1.588,6.461a2.371,2.371,0,0,0-.6,2.263,3.717,3.717,0,0,1,0,3.02,2.373,2.373,0,0,0,.6,2.264,3.674,3.674,0,0,1,1.484,2.616A2.324,2.324,0,0,0,4.7,18.281c1.28.349,1.375.294,2.217,1.152a2.272,2.272,0,0,0,2.844.333,2.269,2.269,0,0,1,2.432,0A2.272,2.272,0,0,0,15.036,19.433ZM5.582,10.053a5.395,5.395,0,1,1,5.394,5.49A5.443,5.443,0,0,1,5.582,10.053Z" transform="translate(0.002 0.008)" fill="#fff"/>
</svg>
