<svg xmlns="http://www.w3.org/2000/svg" width="26.811" height="29.927" viewBox="0 0 26.811 29.927">
  <path id="bell-regular_1_" data-name="bell-regular (1)" d="M26.3,21.176c-1.156-1.213-3.32-3.039-3.32-9.019a9.29,9.29,0,0,0-7.657-9.069V1.87a1.914,1.914,0,0,0-3.828,0V3.089a9.29,9.29,0,0,0-7.657,9.069c0,5.98-2.163,7.805-3.32,9.018A1.8,1.8,0,0,0,0,22.445a1.894,1.894,0,0,0,1.921,1.87H24.89a1.894,1.894,0,0,0,1.921-1.87,1.8,1.8,0,0,0-.515-1.269ZM4.041,21.51c1.27-1.635,2.658-4.345,2.665-9.318,0-.012,0-.022,0-.034a6.626,6.626,0,0,1,6.7-6.547,6.626,6.626,0,0,1,6.7,6.547c0,.012,0,.022,0,.034.007,4.974,1.4,7.684,2.665,9.318Zm9.364,8.417a3.786,3.786,0,0,0,3.828-3.741H9.577A3.786,3.786,0,0,0,13.405,29.927Z" transform="translate(0.001)" fill="#a0a0a0"/>
</svg>
